<svg width="159" height="30" viewBox="0 0 159 30" fill="none" xmlns="http://www.w3.org/2000/svg">
<path d="M0.856534 0.90909H8.44176L16.4531 20.4545H16.794L24.8054 0.90909H32.3906V30H26.4247V11.0653H26.1832L18.6548 29.858H14.5923L7.06392 10.9943H6.82244V30H0.856534V0.90909ZM43.4581 30V0.90909H63.0604V5.98011H49.6087V12.9119H62.0518V17.983H49.6087V24.929H63.1172V30H43.4581ZM78.9645 30H72.3736L82.4162 0.90909H90.3423L100.371 30H93.7798L86.4929 7.55682H86.2656L78.9645 30ZM78.5526 18.5653H94.1207V23.3665H78.5526V18.5653ZM105.21 5.98011V0.90909H129.102V5.98011H120.195V30H114.116V5.98011H105.21Z" fill="white"/>
<path d="M139.036 30V0.90909H158.638V5.98011H145.187V12.9119H157.63V17.983H145.187V24.929H158.695V30H139.036Z" fill="#B2B2B2"/>
</svg>
